<?xml version="1.0" encoding="UTF-8"?>
<svg version="1.1" xmlns="http://www.w3.org/2000/svg" width="496" height="503">
<path d="M0 0 C1.27350952 0.61712817 2.54836245 1.23148831 3.82421875 1.84375 C16.78581387 8.11104626 28.20376663 15.60637463 39.36962891 24.67675781 C40.48983148 25.5859369 41.617582 26.4858702 42.75146484 27.37792969 C44.20473441 28.54037502 45.60745512 29.76545946 47 31 C47 31.66 47 32.32 47 33 C47.66 33 48.32 33 49 33 C50.4453125 34.43359375 50.4453125 34.43359375 52.125 36.4375 C53.99369883 38.65225417 55.84920272 40.84220369 57.8515625 42.9375 C84.86754116 71.39877793 98.46551722 113.97220166 98.06689453 152.71069336 C96.77485229 196.92777413 79.26716367 239.30940784 47 270 C46.34 270 45.68 270 45 270 C44.67 270.99 44.34 271.98 44 273 C42.0381543 274.77044612 40.08959114 276.39305822 38 278 C37.06546997 278.72195557 37.06546997 278.72195557 36.11206055 279.45849609 C12.76868415 297.21342606 -13.76309791 309.92189134 -43 314 C-43.64283936 314.0928125 -44.28567871 314.185625 -44.94799805 314.28125 C-86.45539626 319.65872669 -130.31380202 309.40037076 -163.84399414 284.04296875 C-165.57266448 282.70751121 -167.28825154 281.35705273 -169 280 C-170.52947266 278.80503906 -170.52947266 278.80503906 -172.08984375 277.5859375 C-177.68384767 273.1199426 -183.38930274 268.50905661 -188 263 C-188 262.34 -188 261.68 -188 261 C-188.66 261 -189.32 261 -190 261 C-191.76367326 259.04036304 -193.38947607 257.08114774 -195 255 C-195.48766846 254.37206543 -195.97533691 253.74413086 -196.4777832 253.09716797 C-205.49572557 241.27633193 -212.80565038 228.49781041 -219 215 C-219.46019531 214.00484375 -219.92039062 213.0096875 -220.39453125 211.984375 C-237.10776674 172.29707294 -234.9356468 127.05004927 -219.62890625 87.453125 C-212.05497524 68.98012253 -201.24288262 53.01285114 -187.46875 38.64453125 C-184.92439464 36.06242828 -184.92439464 36.06242828 -183 33 C-182.34 33 -181.68 33 -181 33 C-181 32.34 -181 31.68 -181 31 C-177.5097242 27.79202592 -173.72871731 24.92515668 -170 22 C-169.19433594 21.36449219 -168.38867188 20.72898438 -167.55859375 20.07421875 C-162.27863962 16 -162.27863962 16 -160 16 C-160 15.34 -160 14.68 -160 14 C-151.4176805 7.70436933 -141.71234322 3.23591293 -132 -1 C-130.24429688 -1.78890625 -130.24429688 -1.78890625 -128.453125 -2.59375 C-89.33678789 -19.33349252 -38.16003128 -19.653235 0 0 Z M-61 128 C-60.67 128.66 -60.34 129.32 -60 130 C-59.77049681 132.204364 -59.58924067 134.41392173 -59.4375 136.625 C-59.35371094 137.81351563 -59.26992187 139.00203125 -59.18359375 140.2265625 C-59.12300781 141.14179688 -59.06242188 142.05703125 -59 143 C-58.34 143 -57.68 143 -57 143 C-57 138.05 -57 133.1 -57 128 C-58.32 128 -59.64 128 -61 128 Z M-42 130 C-41.690625 130.66 -41.38125 131.32 -41.0625 132 C-39.75039745 135.70476015 -39.39735865 139.09263991 -39 143 C-38.01 142.67 -37.02 142.34 -36 142 C-35.49869394 136.73628638 -36.68831371 134.0909066 -40 130 C-40.66 130 -41.32 130 -42 130 Z M-111 140 C-110.67 140.99 -110.34 141.98 -110 143 C-109.34 143 -108.68 143 -108 143 C-107.67 142.01 -107.34 141.02 -107 140 C-108.32 140 -109.64 140 -111 140 Z M-80 140 C-79.67 140.99 -79.34 141.98 -79 143 C-78.01 142.67 -77.02 142.34 -76 142 C-76 141.34 -76 140.68 -76 140 C-77.32 140 -78.64 140 -80 140 Z M-40 162 C-40 165.99191204 -38.74501788 167.18079244 -36 170 C-33.36539052 170.87943404 -33.36539052 170.87943404 -31 171 C-31.66 170.67 -32.32 170.34 -33 170 C-33 169.34 -33 168.68 -33 168 C-33.66 168 -34.32 168 -35 168 C-35.268125 167.38125 -35.53625 166.7625 -35.8125 166.125 C-36.95556848 163.7004767 -36.95556848 163.7004767 -40 162 Z M-110 163 C-110.06058594 164.26457031 -110.12117188 165.52914062 -110.18359375 166.83203125 C-110.26800904 168.49219871 -110.35265655 170.15235437 -110.4375 171.8125 C-110.47681641 172.64587891 -110.51613281 173.47925781 -110.55664062 174.33789062 C-110.59853516 175.14033203 -110.64042969 175.94277344 -110.68359375 176.76953125 C-110.72025146 177.50792236 -110.75690918 178.24631348 -110.79467773 179.00708008 C-111 181 -111 181 -112 184 C-110.35 184 -108.7 184 -107 184 C-107.33 177.07 -107.66 170.14 -108 163 C-108.66 163 -109.32 163 -110 163 Z M-79 163 C-79.78688445 165.77723925 -80.11949924 168.22610077 -80.09765625 171.109375 C-80.09443359 171.86347656 -80.09121094 172.61757813 -80.08789062 173.39453125 C-80.07951172 174.17183594 -80.07113281 174.94914063 -80.0625 175.75 C-80.05798828 176.54277344 -80.05347656 177.33554687 -80.04882812 178.15234375 C-80.03708565 180.10159508 -80.01915146 182.05080738 -80 184 C-78.35 184 -76.7 184 -75 184 C-75.33 183.34 -75.66 182.68 -76 182 C-76.15067214 180.5534758 -76.24861036 179.1012066 -76.31640625 177.6484375 C-76.37924805 176.37226563 -76.37924805 176.37226563 -76.44335938 175.0703125 C-76.48267578 174.18085938 -76.52199219 173.29140625 -76.5625 172.375 C-76.60568359 171.4778125 -76.64886719 170.580625 -76.69335938 169.65625 C-76.79956861 167.43765717 -76.90161194 165.2189512 -77 163 C-77.66 163 -78.32 163 -79 163 Z M-59 163 C-59.33 165.97 -59.66 168.94 -60 172 C-58.68 172 -57.36 172 -56 172 C-56.33 169.03 -56.66 166.06 -57 163 C-57.66 163 -58.32 163 -59 163 Z " fill="#E6B8C2" transform="translate(315,94)"/>
<path d="M0 0 C6.93 0 13.86 0 21 0 C21 0.66 21 1.32 21 2 C22.31200404 3.35432675 23.64631404 4.68733482 25 6 C26.60725635 9.21451269 26.05748185 12.43612536 26 16 C26.66 15.67 27.32 15.34 28 15 C28.65772428 11.97065509 28.65772428 11.97065509 29 9 C29.33 9 29.66 9 30 9 C30 11.97 30 14.94 30 18 C28.515 18.495 28.515 18.495 27 19 C28.485 19.495 28.485 19.495 30 20 C30.495 24.95 30.495 24.95 31 30 C32.65 30.33 34.3 30.66 36 31 C35.67 31.66 35.34 32.32 35 33 C33.02 33 31.04 33 29 33 C29.33 33.99 29.66 34.98 30 36 C31.485 36.495 31.485 36.495 33 37 C33.495 39.97 33.495 39.97 34 43 C33.34 43 32.68 43 32 43 C32 42.34 32 41.68 32 41 C31.34 41 30.68 41 30 41 C29.195625 40.175 28.39125 39.35 27.5625 38.5 C25.23877584 35.65083807 25.23877584 35.65083807 22 36 C22.33 34.68 22.66 33.36 23 32 C21.7625 32.226875 20.525 32.45375 19.25 32.6875 C16.13146889 33.09666898 15.31872101 33.18326458 12.5 31.5625 C12.005 31.046875 11.51 30.53125 11 30 C10.01 30.99 9.02 31.98 8 33 C8.33 33.33 8.66 33.66 9 34 C9.07179964 35.51928038 9.08392007 37.04167482 9.0625 38.5625 C9.05347656 39.38878906 9.04445313 40.21507812 9.03515625 41.06640625 C9.02355469 41.70449219 9.01195312 42.34257812 9 43 C8.67 43 8.34 43 8 43 C8 40.69 8 38.38 8 36 C7.34 36 6.68 36 6 36 C6.020625 37.11375 6.04125 38.2275 6.0625 39.375 C6 43 6 43 5 45 C5.928125 44.79375 6.85625 44.5875 7.8125 44.375 C11 44 11 44 14 46 C9.38 46 4.76 46 0 46 C1.32 45.34 2.64 44.68 4 44 C3.505 41.03 3.505 41.03 3 38 C2.34 38 1.68 38 1 38 C1 37.34 1 36.68 1 36 C0.34 36 -0.32 36 -1 36 C-1 35.01 -1 34.02 -1 33 C-1.99 33 -2.98 33 -4 33 C-3.67 29.37 -3.34 25.74 -3 22 C-5.64 22.99 -8.28 23.98 -11 25 C-11 26.32 -11 27.64 -11 29 C-11.2784375 30.0828125 -11.2784375 30.0828125 -11.5625 31.1875 C-11.706875 31.785625 -11.85125 32.38375 -12 33 C-11.67 33.33 -11.34 33.66 -11 34 C-10.91314397 35.56172745 -10.89297781 37.12729344 -10.90234375 38.69140625 C-10.90556641 39.63564453 -10.90878906 40.57988281 -10.91210938 41.55273438 C-10.92467773 43.04256836 -10.92467773 43.04256836 -10.9375 44.5625 C-10.94201172 45.55958984 -10.94652344 46.55667969 -10.95117188 47.58398438 C-10.96299993 50.05604849 -10.97948151 52.52799518 -11 55 C-11.33 55 -11.66 55 -12 55 C-12 48.73 -12 42.46 -12 36 C-12.66 36 -13.32 36 -14 36 C-14.33 37.32 -14.66 38.64 -15 40 C-15.33 38.68 -15.66 37.36 -16 36 C-24.58 36 -33.16 36 -42 36 C-42 41.94 -42 47.88 -42 54 C-42.33 54 -42.66 54 -43 54 C-43 48.06 -43 42.12 -43 36 C-43.66 36 -44.32 36 -45 36 C-45 41.94 -45 47.88 -45 54 C-45.33 54 -45.66 54 -46 54 C-46 47.4 -46 40.8 -46 34 C-38.08 33.505 -38.08 33.505 -30 33 C-30.66 32.67 -31.32 32.34 -32 32 C-32 28.04 -32 24.08 -32 20 C-31.01 20.33 -30.02 20.66 -29 21 C-29 21.99 -29 22.98 -29 24 C-28.01 22.68 -27.02 21.36 -26 20 C-25.01 20.33 -24.02 20.66 -23 21 C-22.67 21 -22.34 21 -22 21 C-21.22389502 18.00645224 -20.60855027 15.04275136 -20 12 C-16.37 12 -12.74 12 -9 12 C-9.66 12.66 -10.32 13.32 -11 14 C-13.125 13.625 -13.125 13.625 -15 13 C-14.67 13.66 -14.34 14.32 -14 15 C-13.01 15 -12.02 15 -11 15 C-11 15.66 -11 16.32 -11 17 C-12.65 17 -14.3 17 -16 17 C-15.67 17.33 -15.34 17.66 -15 18 C-15 18.66 -15 19.32 -15 20 C-14.030625 19.814375 -13.06125 19.62875 -12.0625 19.4375 C-10.5465625 19.2209375 -10.5465625 19.2209375 -9 19 C-8.67 19.33 -8.34 19.66 -8 20 C-4.3308423 20.14310287 -0.67284559 20.04221662 3 20 C3.66 14.39 4.32 8.78 5 3 C5.33 3 5.66 3 6 3 C6 7.29 6 11.58 6 16 C6.66 16 7.32 16 8 16 C7.91621094 15.33613281 7.83242188 14.67226562 7.74609375 13.98828125 C6.73462214 5.21792619 6.73462214 5.21792619 8 1 C6.8553125 1.309375 6.8553125 1.309375 5.6875 1.625 C3 2 3 2 0 0 Z " fill="#D9B0B9" transform="translate(250,221)"/>
<path d="M0 0 C0.99 0.33 1.98 0.66 3 1 C3 1.99 3 2.98 3 4 C3.99 2.68 4.98 1.36 6 0 C6.99 0.33 7.98 0.66 9 1 C9.33 1 9.66 1 10 1 C11.32 1.33 12.64 1.66 14 2 C14 5.3 14 8.6 14 12 C15.98 12 17.96 12 20 12 C21.2263757 14.45275141 21.11415314 16.0505781 21.09765625 18.7890625 C21.09443359 19.73007812 21.09121094 20.67109375 21.08789062 21.640625 C21.07532227 23.11789062 21.07532227 23.11789062 21.0625 24.625 C21.05798828 25.61757813 21.05347656 26.61015625 21.04882812 27.6328125 C21.03702145 30.0886016 21.020554 32.54427104 21 35 C20.67 35 20.34 35 20 35 C20 28.73 20 22.46 20 16 C19.34 16 18.68 16 18 16 C17.67 17.32 17.34 18.64 17 20 C16.67 18.68 16.34 17.36 16 16 C7.42 16 -1.16 16 -10 16 C-10 21.94 -10 27.88 -10 34 C-10.33 34 -10.66 34 -11 34 C-11 28.06 -11 22.12 -11 16 C-11.66 16 -12.32 16 -13 16 C-13 21.94 -13 27.88 -13 34 C-13.33 34 -13.66 34 -14 34 C-14 27.4 -14 20.8 -14 14 C-6.08 13.505 -6.08 13.505 2 13 C1.34 12.67 0.68 12.34 0 12 C0 8.04 0 4.08 0 0 Z " fill="#DDB2BD" transform="translate(218,241)"/>
<path d="M0 0 C11.55 0 23.1 0 35 0 C35 6.93 35 13.86 35 21 C34.67 21 34.34 21 34 21 C34 14.73 34 8.46 34 2 C33.34 2 32.68 2 32 2 C31.67 3.32 31.34 4.64 31 6 C30.67 4.68 30.34 3.36 30 2 C21.42 2 12.84 2 4 2 C4 7.94 4 13.88 4 20 C3.67 20 3.34 20 3 20 C3 14.06 3 8.12 3 2 C2.34 2 1.68 2 1 2 C1 7.94 1 13.88 1 20 C0.67 20 0.34 20 0 20 C0 13.4 0 6.8 0 0 Z " fill="#816267" transform="translate(204,255)"/>
<path d="M0 0 C0.66 0.33 1.32 0.66 2 1 C1.79375 1.78375 1.5875 2.5675 1.375 3.375 C1.25125 4.24125 1.1275 5.1075 1 6 C1.66 6.66 2.32 7.32 3 8 C2.4375 9.9375 2.4375 9.9375 1 12 C-4.84758364 13.59479554 -4.84758364 13.59479554 -7.9375 12 C-9.58367385 8.90131981 -9.36841966 6.43858351 -9 3 C-6.82851715 -0.73977602 -4.0241372 -0.34247976 0 0 Z " fill="#D1A6B0" transform="translate(211,241)"/>
<path d="M0 0 C3.63 0 7.26 0 11 0 C10.34 0.66 9.68 1.32 9 2 C6.875 1.625 6.875 1.625 5 1 C5.33 1.66 5.66 2.32 6 3 C6.99 3 7.98 3 9 3 C9 3.66 9 4.32 9 5 C7.35 5 5.7 5 4 5 C4.33 5.33 4.66 5.66 5 6 C5 6.66 5 7.32 5 8 C5.99 8 6.98 8 8 8 C8 8.66 8 9.32 8 10 C6.68 10 5.36 10 4 10 C4 11.32 4 12.64 4 14 C4.99 14.33 5.98 14.66 7 15 C5.68 15 4.36 15 3 15 C3 16.32 3 17.64 3 19 C4.65 19 6.3 19 8 19 C8 19.33 8 19.66 8 20 C6.02 20 4.04 20 2 20 C1.96261719 19.32453125 1.92523438 18.6490625 1.88671875 17.953125 C1.82097656 17.06109375 1.75523437 16.1690625 1.6875 15.25 C1.62949219 14.36828125 1.57148438 13.4865625 1.51171875 12.578125 C0.9358819 9.67696226 -0.07596148 8.20774393 -2 6 C-1.34 5.34 -0.68 4.68 0 4 C-0.33 3.34 -0.66 2.68 -1 2 C-0.67 1.34 -0.34 0.68 0 0 Z " fill="#C7A0A8" transform="translate(230,233)"/>
<path d="M0 0 C0.93423645 3.01031744 1.04449911 3.86650268 0 7 C0.66 7.33 1.32 7.66 2 8 C1.8125 10.875 1.8125 10.875 1 14 C-1.5625 15.375 -1.5625 15.375 -4 16 C-3.835 16.94875 -3.67 17.8975 -3.5 18.875 C-3 22 -3 22 -3 24 C-3.99 24 -4.98 24 -6 24 C-5.938125 25.918125 -5.938125 25.918125 -5.875 27.875 C-5.8046875 30.0546875 -5.8046875 30.0546875 -6 32 C-6.66 32.66 -7.32 33.32 -8 34 C-7.72075707 22.47488251 -4.5352028 10.58917118 0 0 Z " fill="#BB99A7" transform="translate(94,185)"/>
<path d="M0 0 C2.475 0.495 2.475 0.495 5 1 C7.56976744 8.86046512 7.56976744 8.86046512 6 12 C3 13 3 13 0 12 C0 8.04 0 4.08 0 0 Z " fill="#C39AA2" transform="translate(175,241)"/>
<path d="M0 0 C6.93 0 13.86 0 21 0 C21 0.99 21 1.98 21 3 C19.01432292 2.70703125 17.02864583 2.4140625 15.04296875 2.12109375 C12.7974658 1.86095201 12.7974658 1.86095201 10 3 C9.67 7.62 9.34 12.24 9 17 C7.68 17 6.36 17 5 17 C5 12.38 5 7.76 5 3 C5.33 3 5.66 3 6 3 C6 7.29 6 11.58 6 16 C6.66 16 7.32 16 8 16 C7.91621094 15.33613281 7.83242188 14.67226562 7.74609375 13.98828125 C6.73462214 5.21792619 6.73462214 5.21792619 8 1 C7.236875 1.20625 6.47375 1.4125 5.6875 1.625 C3 2 3 2 0 0 Z " fill="#907278" transform="translate(250,221)"/>
<path d="M0 0 C-0.33 1.32 -0.66 2.64 -1 4 C-0.34 4.33 0.32 4.66 1 5 C0 8 0 8 -2 9 C-5.0625 9.125 -5.0625 9.125 -8 9 C-9 8 -9 8 -9.25 5.625 C-9 3 -9 3 -7.875 1.1875 C-5.22464043 -0.49106106 -3.06753576 -0.20450238 0 0 Z " fill="#E2B7C0" transform="translate(273,243)"/>
<path d="M0 0 C6.93 0 13.86 0 21 0 C21 6.93 21 13.86 21 21 C20.67 21 20.34 21 20 21 C20 14.73 20 8.46 20 2 C19.34 2 18.68 2 18 2 C17.67 3.32 17.34 4.64 17 6 C16.67 4.68 16.34 3.36 16 2 C15.01257813 2.02320313 14.02515625 2.04640625 13.0078125 2.0703125 C11.72648438 2.08835937 10.44515625 2.10640625 9.125 2.125 C7.21074219 2.15980469 7.21074219 2.15980469 5.2578125 2.1953125 C2 2 2 2 0 0 Z " fill="#98757C" transform="translate(218,255)"/>
<path d="M0 0 C1.9375 0.3125 1.9375 0.3125 4 1 C4.33 1.99 4.66 2.98 5 4 C3.35 4.66 1.7 5.32 0 6 C0 7.32 0 8.64 0 10 C-0.33 10.99 -0.66 11.98 -1 13 C-2.65 12.67 -4.3 12.34 -6 12 C-5.67 9.03 -5.34 6.06 -5 3 C-3.68 3 -2.36 3 -1 3 C-0.67 2.01 -0.34 1.02 0 0 Z " fill="#E1B4BF" transform="translate(239,240)"/>
<path d="M0 0 C0 0.99 0 1.98 0 3 C-0.804375 3.144375 -1.60875 3.28875 -2.4375 3.4375 C-4.92103706 3.74135249 -4.92103706 3.74135249 -6 5 C-6.04063832 6.66617115 -6.042721 8.33388095 -6 10 C-3.08347826 10.16681109 -3.08347826 10.16681109 0 10 C0.66 9.34 1.32 8.68 2 8 C1.67 9.32 1.34 10.64 1 12 C-1.31 12.33 -3.62 12.66 -6 13 C-8.17768382 10.03835001 -9.02130831 8.54336192 -8.875 4.8125 C-7.36253013 -0.04901028 -4.59269677 -0.24825388 0 0 Z " fill="#BB909A" transform="translate(271,241)"/>
<path d="M0 0 C1.98 0 3.96 0 6 0 C6 0.66 6 1.32 6 2 C4.68 2 3.36 2 2 2 C2 3.32 2 4.64 2 6 C3.32 5.67 4.64 5.34 6 5 C6 5.66 6 6.32 6 7 C4.68 7 3.36 7 2 7 C2 8.32 2 9.64 2 11 C3.65 10.67 5.3 10.34 7 10 C7 10.66 7 11.32 7 12 C4.69 12 2.38 12 0 12 C0 8.04 0 4.08 0 0 Z " fill="#C79CA5" transform="translate(315,241)"/>
<path d="M0 0 C6.93 0.495 6.93 0.495 14 1 C11 3 11 3 9 3 C9 3.99 9 4.98 9 6 C8.2575 5.773125 7.515 5.54625 6.75 5.3125 C3.94085007 4.70523302 3.94085007 4.70523302 1.6875 6.4375 C1.130625 6.953125 0.57375 7.46875 0 8 C0 5.36 0 2.72 0 0 Z M5 2 C5.33 2.99 5.66 3.98 6 5 C6.66 5 7.32 5 8 5 C8.33 4.01 8.66 3.02 9 2 C7.68 2 6.36 2 5 2 Z " fill="#B48E94" transform="translate(199,232)"/>
<path d="M0 0 C3.95906817 1.43308135 7.28718181 3.33141949 10.8125 5.625 C11.78832031 6.25664063 12.76414062 6.88828125 13.76953125 7.5390625 C14.50558594 8.02117187 15.24164063 8.50328125 16 9 C15.01 9.495 15.01 9.495 14 10 C13.01 9.67 12.02 9.34 11 9 C11 8.34 11 7.68 11 7 C9.9171875 7.4021875 9.9171875 7.4021875 8.8125 7.8125 C6 8 6 8 3.25 5.75 C1 3 1 3 0 0 Z " fill="#A5868C" transform="translate(326,100)"/>
<path d="M0 0 C2.64 0 5.28 0 8 0 C8 0.66 8 1.32 8 2 C8.99 2.33 9.98 2.66 11 3 C11.33 4.98 11.66 6.96 12 9 C11.34 9 10.68 9 10 9 C10 8.34 10 7.68 10 7 C9.34 7 8.68 7 8 7 C7.195625 6.175 6.39125 5.35 5.5625 4.5 C3.23877584 1.65083807 3.23877584 1.65083807 0 2 C0 1.34 0 0.68 0 0 Z " fill="#B18C90" transform="translate(272,255)"/>
<path d="M0 0 C1.98 0 3.96 0 6 0 C6 0.66 6 1.32 6 2 C4.68 2 3.36 2 2 2 C2 3.32 2 4.64 2 6 C2.99 6.33 3.98 6.66 5 7 C3.68 7 2.36 7 1 7 C1 8.32 1 9.64 1 11 C2.65 11 4.3 11 6 11 C6 11.33 6 11.66 6 12 C4.02 12 2.04 12 0 12 C0 8.04 0 4.08 0 0 Z " fill="#AD838C" transform="translate(232,241)"/>
<path d="M0 0 C1.17246771 4.09902098 1.07076062 7.75436258 1 12 C0.01 12 -0.98 12 -2 12 C-1.938125 13.918125 -1.938125 13.918125 -1.875 15.875 C-1.8046875 18.0546875 -1.8046875 18.0546875 -2 20 C-2.66 20.66 -3.32 21.32 -4 22 C-3.5697663 14.3299717 -2.25768639 7.34103058 0 0 Z " fill="#AB8D9B" transform="translate(90,197)"/>
<path d="M0 0 C0.33 0 0.66 0 1 0 C1 2.64 1 5.28 1 8 C1.66 7.67 2.32 7.34 3 7 C3.65772428 3.97065509 3.65772428 3.97065509 4 1 C4.33 1 4.66 1 5 1 C5 3.97 5 6.94 5 10 C2.69 10.33 0.38 10.66 -2 11 C-2.33 10.01 -2.66 9.02 -3 8 C-2.01 8 -1.02 8 0 8 C0 5.36 0 2.72 0 0 Z " fill="#9F7D82" transform="translate(275,229)"/>
<path d="M0 0 C-2.64130091 2.64130091 -4.80878108 2.82401188 -8.4375 3.625 C-9.59121094 3.88539063 -10.74492187 4.14578125 -11.93359375 4.4140625 C-15 5 -15 5 -18 5 C-18 4.34 -18 3.68 -18 3 C-15.93918639 2.49309416 -13.87626474 1.99475381 -11.8125 1.5 C-10.66394531 1.2215625 -9.51539063 0.943125 -8.33203125 0.65625 C-5.43181171 0.08504615 -2.93903615 -0.13283779 0 0 Z " fill="#A08492" transform="translate(297,401)"/>
<path d="M0 0 C2.00130916 2.54712074 3.85727656 4.9527375 5 8 C4.625 10.25 4.625 10.25 4 12 C2.5 10.6875 2.5 10.6875 1 9 C1 8.01 1 7.02 1 6 C-0.43750191 4.31201173 -0.43750191 4.31201173 -2 3 C-1.34 3 -0.68 3 0 3 C0 2.01 0 1.02 0 0 Z " fill="#B08F95" transform="translate(395,172)"/>
<path d="M0 0 C0.99 0.33 1.98 0.66 3 1 C1.68 2.32 0.36 3.64 -1 5 C0.20381448 7.49361571 1.45428722 9.68143083 3 12 C1.125 11.6875 1.125 11.6875 -1 11 C-3 8 -3 8 -2.75 5.5 C-2 3 -2 3 0 0 Z " fill="#C195A1" transform="translate(224,241)"/>
<path d="M0 0 C3.3 0 6.6 0 10 0 C9.67 0.66 9.34 1.32 9 2 C8.01 2 7.02 2 6 2 C6 4.31 6 6.62 6 9 C5.67 9 5.34 9 5 9 C5 6.69 5 4.38 5 2 C3.35 2 1.7 2 0 2 C0 1.34 0 0.68 0 0 Z " fill="#AA7C87" transform="translate(292,241)"/>
<path d="M0 0 C1.32 0.33 2.64 0.66 4 1 C3.6875 3.375 3.6875 3.375 3 6 C2.01 6.66 1.02 7.32 0 8 C-0.33 7.01 -0.66 6.02 -1 5 C-0.01 5 0.98 5 2 5 C2 4.34 2 3.68 2 3 C0.68 3.33 -0.64 3.66 -2 4 C-1.34 2.68 -0.68 1.36 0 0 Z " fill="#D0A9B4" transform="translate(371,345)"/>
<path d="M0 0 C0.33 2.31 0.66 4.62 1 7 C-1.97 6.505 -1.97 6.505 -5 6 C-5 4.68 -5 3.36 -5 2 C-2 0 -2 0 0 0 Z " fill="#D6ABB4" transform="translate(238,246)"/>
<path d="M0 0 C2.97 0 5.94 0 9 0 C8.01 0.66 7.02 1.32 6 2 C5.41810734 4.42521494 5.41810734 4.42521494 5.3125 7.125 C5.24675781 8.03507813 5.18101562 8.94515625 5.11328125 9.8828125 C5.07589844 10.58148438 5.03851563 11.28015625 5 12 C4.67 12 4.34 12 4 12 C4 8.7 4 5.4 4 2 C2.68 2 1.36 2 0 2 C0 1.34 0 0.68 0 0 Z " fill="#AE828B" transform="translate(243,241)"/>
<path d="M0 0 C3.7952131 1.49097658 5.61042731 3.75700849 8 7 C7.01 7.33 6.02 7.66 5 8 C4.34 7.67 3.68 7.34 3 7 C3 6.01 3 5.02 3 4 C2.34 4 1.68 4 1 4 C0.67 2.68 0.34 1.36 0 0 Z " fill="#BC959C" transform="translate(352,118)"/>
<path d="M0 0 C1.32 0.33 2.64 0.66 4 1 C3.01 1.495 3.01 1.495 2 2 C1.67 2.99 1.34 3.98 1 5 C-1.5625 6.6875 -1.5625 6.6875 -4 8 C-4.33 7.01 -4.66 6.02 -5 5 C-3.35 4.34 -1.7 3.68 0 3 C0 2.01 0 1.02 0 0 Z " fill="#B3919D" transform="translate(358,362)"/>
<path d="M0 0 C10.55808656 -0.18451025 10.55808656 -0.18451025 15 1 C15 1.33 15 1.66 15 2 C9.20858017 3.01603857 5.5415502 2.96263236 0 1 C0 0.67 0 0.34 0 0 Z " fill="#8F727F" transform="translate(261,81)"/>
<path d="M0 0 C4.21878192 -0.19622241 7.17010894 0.19769832 11 2 C11 2.33 11 2.66 11 3 C7.7 3.33 4.4 3.66 1 4 C0.67 2.68 0.34 1.36 0 0 Z " fill="#A47A7D" transform="translate(280,264)"/>
<path d="M0 0 C0.66 1.32 1.32 2.64 2 4 C0.02 5.32 -1.96 6.64 -4 8 C-4 4.09161134 -2.49432124 2.88405893 0 0 Z " fill="#AD8D9E" transform="translate(122,138)"/>
<path d="M0 0 C2.625 0.375 2.625 0.375 5 1 C3.35 2.65 1.7 4.3 0 6 C0 5.01 0 4.02 0 3 C-0.66 2.67 -1.32 2.34 -2 2 C-1.34 1.34 -0.68 0.68 0 0 Z " fill="#B1949D" transform="translate(363,356)"/>
<path d="M0 0 C0.66 0.33 1.32 0.66 2 1 C1.67 2.32 1.34 3.64 1 5 C-1.31 5 -3.62 5 -6 5 C-4.06745228 2.9754262 -2.36841312 1.57894208 0 0 Z " fill="#B998A6" transform="translate(165,102)"/>
<path d="M0 0 C2.475 0.99 2.475 0.99 5 2 C4.67 3.32 4.34 4.64 4 6 C3.01 6 2.02 6 1 6 C1 5.34 1 4.68 1 4 C0.68521554 2.66216607 0.35412344 1.32796291 0 0 Z " fill="#D1A6B8" transform="translate(345,369)"/>
<path d="M0 0 C2 1.375 2 1.375 4 3 C4 3.66 4 4.32 4 5 C2.35 5.33 0.7 5.66 -1 6 C-1.042721 4.33388095 -1.04063832 2.66617115 -1 1 C-0.67 0.67 -0.34 0.34 0 0 Z " fill="#DEB4BD" transform="translate(250,264)"/>
</svg>
